# xmcd
#
# Track frame offsets: 
#        150
#        14362
#        30311
#        50615
#        71158
#        85555
#        108692
#        126638
#        149450
#        169162
#        180361
#        195936
#        212320
#        227516
#        247897
#        262640
#        282456
#        299044
#        313571
#        327245
#        342408
#
# Disc length: 4793 seconds
#
# Revision: 0
# Processed by: cddbd v1.5.2PL0 Copyright (c) Steve Scherf et al.
# Submitted via: ExactAudioCopy v1.3
#
DISCID=2f12b715
DTITLE=Various Artist - Akella Presents - vol. 129 - Country-Blues  C
DTITLE=D1
DYEAR=2018
DGENRE=Country
TTITLE0=Watermelon Slim - Tight Fittin' Jeans
TTITLE1=The Hopdown Bilby Band - I Wanna...
TTITLE2=Jimmy and the Poor Boys - Caught in the Rain With You
TTITLE3=Jimmy Thackery - Promised Land
TTITLE4=Tom McGuinness - Momma Tried To Tell Me
TTITLE5=Bo Ramsey - Stranger Blues
TTITLE6=Dion - Travelin' Riverside Blues
TTITLE7=Green - The Letter
TTITLE8=Michael Quest - The Better of My Friends
TTITLE9=Will Hoge - Baby's Eyes
TTITLE10=Rev. Jimmie Bratcher - Heart Not Broken
TTITLE11=Timo Gross - I Don't Know Why
TTITLE12=Long John Baldry - Midnight Special
TTITLE13=Rita Chiarelli - Since I've Had You On My Mind
TTITLE14=Honeyboy Hickling - Wonderful Night
TTITLE15=Big Daddy Lee - Sue Ann
TTITLE16=Damon Fowler - Wrong Side Of The Road
TTITLE17=Phil Alvin - County Fair
TTITLE18=Me And That Man - One Day
TTITLE19=John Campbelljohn - Good Morning Mr. Blue Sky
TTITLE20=Sass Jordan - Awake
EXTD=
EXTT0=
EXTT1=
EXTT2=
EXTT3=
EXTT4=
EXTT5=
EXTT6=
EXTT7=
EXTT8=
EXTT9=
EXTT10=
EXTT11=
EXTT12=
EXTT13=
EXTT14=
EXTT15=
EXTT16=
EXTT17=
EXTT18=
EXTT19=
EXTT20=
PLAYORDER=
